<?xml version="1.0" encoding="utf-8"?>
<!-- Generator: Adobe Illustrator 23.0.3, SVG Export Plug-In . SVG Version: 6.00 Build 0)  -->
<svg version="1.1" id="Layer_1" xmlns="http://www.w3.org/2000/svg" xmlns:xlink="http://www.w3.org/1999/xlink" x="0px" y="0px"
	 viewBox="0 0 18 20" style="enable-background:new 0 0 18 20;" xml:space="preserve">
<style type="text/css">
	.st0{fill-rule:evenodd;clip-rule:evenodd;fill:#FFFFFF;}
</style>
<path id="Attachment" class="st0" d="M8.3,8.9C8.6,8.7,8.6,8.3,8.4,8c0,0,0,0-0.1-0.1c-0.3-0.3-0.7-0.3-1,0l-3.7,3.7
	c-1.3,1.3-1.3,3.3-0.1,4.6c0,0,0.1,0.1,0.1,0.1c1.3,1.3,3.4,1.3,4.7,0c0,0,0,0,0,0l8.4-8.4c1.7-1.8,1.7-4.7,0-6.6
	c-1.8-1.8-4.8-1.8-6.6,0c0,0,0,0,0,0L1.7,9.8c-2.3,2.4-2.3,6.1,0,8.5c2.4,2.3,6.1,2.3,8.5,0l3.7-3.7c0.2-0.3,0.2-0.7,0-1
	c-0.3-0.3-0.7-0.3-1,0l-3.7,3.7c-0.9,0.9-2.1,1.3-3.3,1.3c-1.2,0-2.4-0.5-3.2-1.3c-1.7-1.8-1.7-4.7,0-6.5l8.4-8.4
	c1.2-1.2,3.2-1.3,4.5,0c0,0,0,0,0,0c0.7,0.6,1,1.4,1,2.3c0,0.9-0.4,1.7-1,2.3l-8.3,8.4c-0.7,0.7-2,0.7-2.7,0
	c-0.8-0.7-0.8-1.8-0.1-2.6c0,0,0.1-0.1,0.1-0.1L8.3,8.9z"/>
</svg>
