<svg xmlns="http://www.w3.org/2000/svg" width="13" height="15" viewBox="0 0 13 15">
  <defs>
    <style>
      .cls-1 {
        fill: #a77bca;
        fill-rule: evenodd;
      }
    </style>
  </defs>
  <path id="Icon" class="cls-1" d="M12685,583.69a0.541,0.541,0,0,0,0-.748,0.472,0.472,0,0,0-.7,0l-2.7,2.8a2.452,2.452,0,1,0,3.4,3.535l6-6.323a3.537,3.537,0,0,0,0-4.929,3.2,3.2,0,0,0-4.7,0l-6,6.31a4.526,4.526,0,0,0,0,6.349,3.982,3.982,0,0,0,3,1.316,4.143,4.143,0,0,0,3-1.316l2.7-2.8a0.543,0.543,0,0,0,0-.749,0.474,0.474,0,0,0-.7,0l-2.7,2.8a3.13,3.13,0,0,1-4.6,0,3.442,3.442,0,0,1,0-4.851l6-6.31a2.33,2.33,0,0,1,1.7-.71,2.159,2.159,0,0,1,1.6.71,2.453,2.453,0,0,1,0,3.432l-6.1,6.323a1.395,1.395,0,0,1-1.9-2.039Z" transform="translate(-12679 -577)"/>
</svg>
