<svg xmlns="http://www.w3.org/2000/svg" width="30" height="39" viewBox="0 0 30 39">
  <defs>
    <style>
      .cls-1 {
        fill: #535e73;
        fill-rule: evenodd;
      }
    </style>
  </defs>
  <path id="Incon" class="cls-1" d="M3160.98,259.3h-15.96a0.65,0.65,0,0,0,0,1.3h15.96A0.65,0.65,0,0,0,3160.98,259.3Zm-15.96-3.9h6.38a0.65,0.65,0,0,0,0-1.3h-6.38A0.65,0.65,0,0,0,3145.02,255.4Zm15.96,9.1h-15.96a0.65,0.65,0,0,0,0,1.3h15.96A0.65,0.65,0,0,0,3160.98,264.5Zm0,5.2h-15.96a0.65,0.65,0,0,0,0,1.3h15.96A0.65,0.65,0,0,0,3160.98,269.7Zm0,5.2h-15.96a0.65,0.65,0,0,0,0,1.3h15.96A0.65,0.65,0,0,0,3160.98,274.9Zm-2.29-29.9H3138v39h30V254.481Zm0.37,2.219,6.76,6.881h-6.76v-6.881ZM3139.28,282.7V246.3h18.51v9.1h8.93v27.3h-27.44Z" transform="translate(-3138 -245)"/>
</svg>
