<svg xmlns="http://www.w3.org/2000/svg" width="18" height="20" viewBox="0 0 18 20">
  <defs>
    <style>
      .cls-1 {
        fill: #535e73;
        fill-rule: evenodd;
      }
    </style>
  </defs>
  <path id="Attachment" class="cls-1" d="M12667.3,1088.92a0.668,0.668,0,0,0,0-1,0.719,0.719,0,0,0-1,0l-3.7,3.74a3.273,3.273,0,0,0,0,4.71,3.3,3.3,0,0,0,4.7,0l8.4-8.43a4.8,4.8,0,0,0,0-6.57,4.653,4.653,0,0,0-6.6,0l-8.4,8.41a6.125,6.125,0,0,0,0,8.47,6.035,6.035,0,0,0,8.5,0l3.7-3.74a0.908,0.908,0,0,0,0-1,0.716,0.716,0,0,0-1,0l-3.7,3.74a4.641,4.641,0,0,1-3.3,1.34,4.583,4.583,0,0,1-3.2-1.34,4.675,4.675,0,0,1,0-6.47l8.4-8.42a3.162,3.162,0,0,1,4.5,0,2.959,2.959,0,0,1,1,2.29,3.306,3.306,0,0,1-1,2.29l-8.3,8.43a1.918,1.918,0,0,1-2.7,0,1.841,1.841,0,0,1,0-2.72Z" transform="translate(-12659 -1080)"/>
</svg>
