<svg xmlns="http://www.w3.org/2000/svg" width="20" height="25" viewBox="0 0 20 25">
  <defs>
    <style>
      .cls-1 {
        fill: #f5416f;
        fill-rule: evenodd;
      }
    </style>
  </defs>
  <path id="Forma_1" data-name="Forma 1" class="cls-1" d="M6695.28,1061.94h-3.38v-2.17a0.784,0.784,0,0,0-.8-0.77,0.122,0.122,0,0,0-.09.03,0.068,0.068,0,0,0-.05-0.03h-8.06a0.766,0.766,0,0,0-.78.77v2.17h-3.39a1.7,1.7,0,0,0-1.73,1.71v2.79h1.5v15.87a1.668,1.668,0,0,0,1.71,1.69h13.58a1.685,1.685,0,0,0,1.73-1.69v-15.87H6697v-2.79A1.7,1.7,0,0,0,6695.28,1061.94Zm-11.59-1.39h6.62v1.39h-6.62v-1.39Zm10.25,21.76a0.126,0.126,0,0,1-.15.14h-13.58a0.119,0.119,0,0,1-.14-0.14v-15.87h13.87v15.87Zm1.48-17.42h-16.84v-1.24a0.14,0.14,0,0,1,.15-0.16h16.55a0.133,0.133,0,0,1,.14.16v1.24h0Zm-5.55,3.36h1.58v12.82h-1.58v-12.82Zm-3.65,0h1.59v12.82h-1.59v-12.82Zm-3.65,0h1.59v12.82h-1.59v-12.82Z" transform="translate(-6677 -1059)"/>
</svg>
