<?xml version="1.0" standalone="no"?>
<!DOCTYPE svg PUBLIC "-//W3C//DTD SVG 20010904//EN"
 "http://www.w3.org/TR/2001/REC-SVG-20010904/DTD/svg10.dtd">
<svg version="1.0" xmlns="http://www.w3.org/2000/svg"
 width="512.000000pt" height="512.000000pt" viewBox="0 0 512.000000 512.000000"
 preserveAspectRatio="xMidYMid meet">
<metadata>
Created by potrace 1.11, written by Peter Selinger 2001-2013
</metadata>
<g transform="translate(0.000000,512.000000) scale(0.100000,-0.100000)"
fill="#000000" stroke="none">
<path d="M1944 4349 c-3 -5 -9 -7 -13 -5 -4 3 -19 -5 -32 -17 -13 -12 -26 -21
-28 -19 -3 2 -8 -4 -11 -13 -3 -9 -10 -16 -15 -16 -6 0 -10 -8 -9 -19 0 -11
-5 -21 -13 -24 -7 -3 -13 -1 -13 5 0 6 -5 7 -12 3 -19 -12 -88 -12 -88 0 0 7
-3 8 -8 1 -4 -5 -16 -11 -27 -11 -48 -3 -90 -14 -93 -24 -2 -5 -7 -8 -11 -5
-10 6 -82 -60 -74 -69 3 -3 2 -6 -4 -6 -14 0 -15 -7 -16 -190 -2 -133 -5 -168
-17 -178 -8 -8 -9 -11 -2 -7 6 3 12 3 13 -2 4 -44 3 -63 -3 -63 -4 0 -4 -10 0
-22 10 -28 8 -170 -2 -187 -4 -6 -3 -11 2 -11 5 0 8 -10 7 -22 -2 -21 -4 -22
-186 -24 -205 -3 -209 -4 -209 -16 0 -5 -4 -7 -8 -4 -9 5 -23 -9 -60 -61 -13
-18 -20 -33 -15 -33 4 0 3 -4 -4 -8 -6 -4 -14 -31 -17 -60 -3 -29 -8 -57 -12
-64 -4 -7 -3 -8 4 -4 8 5 11 0 8 -16 -3 -13 -5 -27 -5 -31 -1 -5 -5 -6 -9 -3
-5 3 -9 -1 -9 -8 0 -8 5 -12 11 -10 7 3 12 -37 14 -122 2 -96 0 -124 -9 -118
-8 5 -9 3 -3 -7 5 -8 10 -24 12 -36 2 -18 -1 -21 -15 -17 -15 5 -15 4 -3 -4
19 -14 19 -64 0 -80 -12 -9 -12 -12 -1 -10 7 2 16 -3 19 -11 2 -8 0 -11 -6 -7
-6 3 -14 2 -17 -4 -4 -6 -3 -10 2 -9 22 4 25 -3 7 -17 -10 -8 -14 -13 -8 -10
7 3 14 0 17 -8 8 -19 -16 -21 -232 -20 -160 0 -185 2 -196 17 -6 9 -16 13 -20
9 -5 -4 -5 -1 -1 6 4 7 2 19 -4 27 -14 17 -21 65 -8 65 5 0 4 9 -2 19 -7 14
-6 21 3 24 9 3 9 7 -2 20 -12 15 -11 17 5 18 11 0 14 3 7 6 -21 8 -15 51 7 58
11 3 20 11 20 16 0 6 5 7 10 4 6 -3 13 2 17 12 10 26 25 34 43 20 12 -9 13 -9
2 3 -13 16 -17 34 -4 26 4 -2 14 0 22 6 12 8 12 9 -2 4 -20 -6 -34 9 -18 19 6
4 8 11 5 16 -4 5 1 9 9 9 20 0 20 14 1 30 -8 7 -12 17 -9 22 14 23 -55 128
-85 128 -6 0 -11 5 -11 11 0 6 -7 8 -16 5 -10 -4 -22 1 -30 11 -7 10 -14 13
-14 6 0 -6 -11 -10 -25 -8 -14 1 -28 -2 -31 -7 -3 -4 -10 -6 -15 -3 -5 4 -9 1
-9 -5 0 -6 -4 -9 -8 -6 -5 3 -19 -4 -30 -15 -12 -11 -22 -16 -22 -12 0 4 -9
-5 -19 -21 -11 -16 -17 -36 -13 -44 4 -11 1 -14 -11 -9 -14 5 -16 3 -9 -11 10
-19 9 -63 -2 -80 -4 -7 -2 -12 3 -12 6 0 11 -7 11 -15 0 -8 4 -15 9 -15 6 0 8
-9 6 -20 -2 -11 0 -18 6 -15 10 7 30 -35 22 -47 -2 -5 1 -8 7 -8 7 0 9 9 6 23
-3 12 -3 16 0 10 3 -7 10 -13 15 -13 6 0 16 -6 23 -12 12 -11 12 -16 -1 -30
-10 -11 -12 -18 -5 -18 7 0 12 5 12 10 0 6 5 10 10 10 7 0 7 -6 1 -19 -6 -10
-7 -21 -3 -25 10 -11 8 -116 -3 -116 -7 0 -7 -3 0 -8 6 -4 11 -16 13 -27 2
-11 8 -32 14 -47 5 -15 8 -34 5 -41 -3 -8 3 -14 15 -14 11 -1 28 -9 37 -17 10
-9 22 -13 26 -9 5 5 3 0 -4 -10 -8 -9 -11 -20 -7 -24 3 -3 6 -1 6 6 0 7 5 9
10 6 6 -4 7 -11 4 -17 -4 -7 -2 -8 5 -4 6 4 9 12 6 17 -4 5 1 9 10 9 9 0 13
-4 10 -10 -8 -12 5 -13 25 0 9 6 19 5 29 -3 8 -7 15 -11 15 -10 5 9 57 20 61
13 5 -8 54 -4 64 5 2 2 12 0 22 -5 9 -6 19 -7 22 -2 2 4 2 1 1 -6 -3 -9 3 -8
19 3 14 8 28 11 36 6 7 -5 26 -5 41 -1 15 4 33 4 41 -1 8 -5 16 -3 21 4 6 9 8
9 8 -1 0 -7 5 -10 12 -6 6 4 8 3 4 -4 -3 -6 -18 -9 -31 -6 -14 2 -25 0 -25 -5
0 -13 16 -22 24 -14 3 4 14 7 24 8 22 2 24 -35 4 -48 -8 -6 -10 -13 -4 -20 19
-24 20 -57 4 -67 -16 -9 -16 -9 1 -10 19 0 24 -20 5 -20 -9 0 -8 -4 2 -10 13
-8 13 -10 0 -10 -11 0 -11 -3 -2 -12 19 -19 14 -32 -5 -17 -15 11 -14 10 1 -9
11 -12 15 -22 10 -22 -5 0 -7 -76 -4 -180 3 -111 1 -180 -5 -180 -5 0 -4 -5 3
-12 16 -16 15 -31 0 -22 -9 5 -9 2 1 -9 11 -14 11 -17 0 -17 -10 0 -10 -3 -1
-12 19 -19 14 -32 -5 -17 -15 11 -14 10 1 -9 19 -22 19 -22 0 -22 -18 -1 -18
-1 -1 -11 9 -5 17 -15 17 -20 0 -6 -6 -7 -12 -3 -9 5 -9 2 1 -9 11 -14 11 -17
0 -17 -10 0 -10 -3 -1 -12 19 -19 14 -32 -5 -17 -15 11 -14 10 1 -9 19 -22 19
-22 0 -22 -18 -1 -18 -1 -1 -11 22 -13 22 -30 0 -22 -15 5 -14 3 2 -10 l20
-16 -20 -1 c-17 0 -18 -2 -5 -10 13 -9 12 -12 -5 -25 -11 -9 -25 -13 -32 -11
-7 3 -10 -1 -7 -8 3 -7 -1 -13 -8 -14 -7 0 -23 -3 -35 -6 -13 -2 -23 0 -23 5
0 6 -5 7 -12 3 -19 -12 -128 -12 -128 0 -1 17 -56 87 -63 79 -4 -3 -9 2 -13
11 -3 9 -10 13 -15 10 -5 -3 -9 -1 -9 5 0 5 -24 9 -55 8 -31 -1 -55 2 -55 8 0
6 -4 5 -8 -2 -4 -6 -14 -13 -22 -15 -8 -2 -25 -13 -38 -26 -12 -13 -22 -20
-22 -15 0 4 -7 -3 -16 -15 -8 -12 -12 -27 -9 -32 3 -6 2 -10 -3 -10 -13 0 -20
-53 -10 -79 4 -12 3 -21 -2 -21 -12 0 16 -53 40 -75 11 -10 20 -24 20 -31 0
-7 8 -11 19 -9 15 3 19 -2 17 -19 -2 -13 3 -23 10 -23 6 0 10 6 7 13 -3 9 2
12 19 8 37 -9 84 -4 109 12 8 5 10 2 5 -7 -4 -8 0 -5 9 6 9 11 20 19 25 18 5
-2 17 11 25 27 9 17 21 30 28 30 8 0 7 -4 -3 -10 -8 -5 -10 -10 -5 -10 13 0
35 20 35 32 0 4 -5 8 -11 8 -5 0 -7 -4 -4 -10 4 -6 -1 -7 -11 -3 -15 5 -15 7
0 15 32 18 52 17 53 -3 1 -12 -3 -17 -10 -13 -7 4 -8 3 -4 -1 16 -18 34 -13
30 9 -4 20 -1 22 44 21 26 0 54 -4 61 -8 6 -5 12 -4 12 1 0 5 6 9 13 10 6 0
26 4 42 8 17 3 38 6 47 6 9 0 23 7 30 16 11 15 11 16 -4 4 -12 -10 -18 -10
-24 -1 -4 7 -3 9 4 5 6 -3 14 0 19 8 12 22 21 23 38 1 16 -20 16 -20 6 2 -16
31 -14 35 12 28 21 -6 21 -5 -2 8 -13 8 -20 16 -15 18 14 6 44 68 30 63 -8 -3
-11 11 -10 46 1 28 4 54 8 57 3 3 1 14 -5 24 -7 15 -6 19 6 19 8 0 15 5 15 11
0 8 6 7 17 -2 9 -8 14 -9 11 -4 -4 6 1 19 9 30 15 19 15 19 11 -7 -3 -15 -1
-25 3 -22 5 3 9 11 9 19 0 8 4 16 9 20 6 3 8 -6 5 -21 -3 -16 -1 -23 6 -19 5
3 10 12 10 19 0 19 52 17 66 -2 9 -12 13 -12 19 -2 5 9 4 11 -3 6 -7 -4 -12
-2 -12 4 0 7 13 10 35 7 19 -3 35 -1 35 4 0 5 5 9 10 9 7 0 7 -6 0 -20 -14
-27 -3 -25 21 2 11 13 18 17 17 9 -2 -7 3 -16 11 -19 8 -2 11 0 8 5 -4 7 14
10 48 10 41 -1 54 -4 51 -14 -3 -7 -1 -13 4 -13 6 0 10 10 11 23 l0 22 9 -22
c10 -24 21 -32 16 -10 -1 6 -1 9 1 4 3 -4 8 -5 12 -2 5 2 7 -7 5 -20 -3 -30
-1 -30 17 -8 12 14 12 16 0 8 -9 -5 -12 -4 -7 3 4 6 14 8 22 5 11 -4 12 -8 4
-13 -8 -5 -9 -10 -2 -14 6 -4 8 -14 5 -23 -4 -11 -3 -14 5 -9 7 4 12 1 12 -9
0 -12 -6 -15 -22 -10 -22 6 -22 5 -3 -6 30 -18 30 -18 9 -34 -16 -13 -16 -14
-1 -9 20 7 22 -6 5 -25 -10 -11 -10 -13 0 -7 13 8 17 -6 5 -18 -11 -10 -12
-37 -2 -30 15 9 10 -8 -8 -30 -14 -16 -15 -18 -2 -8 14 11 16 9 17 -13 0 -20
-5 -25 -17 -21 -11 4 -10 1 4 -9 16 -13 17 -17 6 -24 -11 -7 -11 -9 0 -14 12
-4 11 -7 -1 -16 -10 -7 -11 -11 -2 -11 6 0 12 -5 12 -11 0 -5 -6 -7 -12 -3
-10 6 -10 4 0 -7 16 -17 16 -32 0 -23 -10 6 -10 4 0 -7 14 -15 17 -33 4 -25
-5 3 -9 -1 -9 -9 0 -8 4 -12 9 -9 14 9 9 -9 -9 -30 -14 -16 -15 -18 -2 -8 14
11 17 9 17 -13 0 -20 -5 -25 -17 -21 -11 4 -10 1 4 -9 16 -13 17 -17 6 -24
-11 -7 -11 -9 0 -14 12 -4 11 -7 -1 -16 -10 -7 -11 -11 -2 -11 6 0 12 -5 12
-11 0 -5 -6 -7 -12 -3 -8 5 -8 1 1 -10 12 -14 12 -19 2 -26 -11 -6 -11 -9 0
-13 12 -4 11 -7 -1 -16 -10 -7 -11 -11 -2 -11 6 0 12 -5 12 -11 0 -5 -4 -8 -8
-5 -5 3 -9 -1 -9 -9 0 -8 4 -12 7 -10 15 9 5 -70 -10 -83 -13 -11 -13 -11 1
-6 12 4 17 -1 17 -20 0 -16 -5 -23 -12 -19 -6 3 -6 0 2 -8 14 -15 17 -33 4
-25 -5 3 -9 -1 -9 -9 0 -8 4 -12 9 -9 13 8 10 -10 -4 -25 -10 -11 -10 -13 0
-7 7 4 12 1 12 -8 0 -9 -6 -16 -12 -16 -8 0 -9 -3 -3 -8 6 -4 16 -18 23 -32
l12 -25 -5 25 c-5 22 -5 23 8 8 12 -15 14 -15 25 0 11 15 12 14 8 -8 l-5 -25
19 23 c10 12 22 22 27 22 4 0 8 36 8 80 0 44 -4 80 -9 80 -6 0 -1 7 10 16 10
8 13 12 6 9 -11 -6 -13 4 -11 42 1 27 -1 55 -6 63 -6 10 -4 12 10 6 14 -5 15
-4 7 6 -6 8 -10 73 -9 176 1 96 -2 162 -7 162 -6 0 -1 7 10 16 10 8 13 12 6 9
-11 -6 -13 4 -11 42 1 27 -1 55 -6 63 -6 10 -4 12 11 6 15 -6 17 -5 7 5 -16
16 -18 173 -3 164 6 -3 7 1 4 9 -3 9 -9 14 -13 12 -4 -3 -7 4 -8 14 -1 15 6
18 40 18 23 0 52 3 65 6 13 3 20 1 17 -5 -9 -13 9 -11 24 3 10 11 11 10 6 -4
-4 -10 -11 -18 -16 -18 -5 0 -9 -5 -9 -12 0 -6 10 -2 23 9 12 11 29 21 37 21
8 0 25 3 37 6 16 3 20 1 16 -10 -7 -20 7 -18 23 4 12 14 13 15 8 1 -6 -20 11
-34 22 -18 5 8 3 9 -6 4 -8 -5 -11 -4 -6 3 9 15 49 11 63 -8 6 -8 15 -12 19
-7 4 4 2 7 -4 7 -7 0 -12 4 -12 9 0 6 9 9 20 8 11 -1 20 -4 20 -8 0 -11 29
-19 46 -12 8 3 13 12 10 19 -3 8 0 11 10 7 17 -6 18 -15 2 -32 -10 -10 -8 -10
10 0 12 8 20 19 18 26 -3 7 1 10 9 6 8 -3 13 -9 10 -13 -3 -4 3 -14 13 -21 16
-13 16 -13 2 5 -14 18 -13 19 4 13 16 -6 17 -5 6 8 -19 22 -4 18 18 -5 18 -20
20 -20 33 -3 13 16 12 17 -3 4 -12 -9 -18 -10 -18 -2 0 6 3 11 8 12 4 0 15 2
25 4 9 2 15 0 13 -3 -2 -4 3 -16 11 -27 15 -20 15 -20 9 2 -4 12 -2 24 4 28 6
4 9 1 8 -6 -2 -6 3 -14 11 -17 8 -3 11 0 7 7 -11 17 5 13 19 -6 9 -13 14 -13
20 -3 5 9 4 11 -3 6 -7 -4 -12 -3 -12 2 0 5 18 9 41 9 26 0 36 -3 27 -9 -9 -6
-7 -8 7 -6 15 2 20 -2 19 -20 -1 -19 9 -23 12 -4 4 34 44 60 44 30 0 -9 3 -8
10 2 5 8 22 15 37 15 15 0 28 5 28 10 2 21 17 55 25 55 5 0 12 9 15 21 5 13
12 18 22 14 12 -4 13 -2 6 7 -6 7 -8 22 -6 33 2 11 6 55 8 97 2 43 6 82 9 87
4 5 0 12 -6 14 -10 4 -10 6 0 6 8 1 10 6 6 13 -4 7 -8 29 -9 50 -1 28 3 38 13
38 9 0 12 3 9 6 -3 4 12 20 34 36 22 16 42 35 46 43 3 8 9 12 14 9 5 -3 9 0 9
5 0 6 -5 11 -11 11 -5 0 -7 5 -4 10 4 6 11 7 17 4 7 -5 8 -2 2 7 -12 19 -11
79 1 79 7 0 7 3 0 8 -6 4 -17 21 -25 37 -18 37 -27 46 -64 70 -34 23 -50 27
-91 26 -57 -2 -109 -22 -119 -46 -3 -10 -12 -15 -20 -12 -9 4 -13 0 -12 -11 2
-9 -4 -23 -13 -30 -12 -10 -12 -12 -1 -6 12 6 13 5 3 -7 -7 -8 -11 -38 -9 -69
1 -30 -2 -61 -7 -68 -7 -9 -6 -11 4 -7 8 2 25 -10 39 -30 14 -18 33 -36 43
-38 10 -3 15 -11 11 -20 -3 -8 -1 -18 5 -22 7 -3 8 0 5 9 -3 9 -2 16 4 16 5 0
12 -9 15 -20 5 -18 -4 -25 -26 -21 -5 1 -6 -3 -2 -9 3 -6 10 -8 15 -5 4 3 10
-11 12 -30 3 -29 1 -34 -11 -30 -11 4 -10 0 4 -15 12 -13 14 -20 5 -20 -10 0
-10 -3 -1 -14 9 -11 9 -16 0 -21 -8 -6 -8 -10 2 -16 7 -4 10 -11 6 -15 -3 -4
-12 -3 -20 2 -7 5 -5 2 4 -7 16 -14 16 -16 0 -28 -9 -6 -10 -9 -4 -6 8 4 13 0
13 -9 0 -9 -5 -16 -11 -16 -5 0 -7 -5 -4 -10 3 -6 -3 -22 -15 -37 -21 -27 -62
-35 -90 -18 -8 5 -11 4 -7 -1 7 -12 -214 -11 -233 1 -8 5 -11 4 -7 -1 7 -12
-214 -11 -233 1 -8 5 -11 4 -7 -1 7 -12 -214 -11 -233 1 -8 5 -11 4 -7 -1 7
-11 -172 -12 -190 -1 -6 4 -15 3 -18 -3 -5 -8 -12 -7 -23 2 -9 8 -13 8 -9 2 8
-13 -50 -13 -70 -1 -7 4 -15 3 -18 -3 -5 -8 -12 -7 -23 2 -9 7 -13 8 -10 3 5
-7 -30 -10 -105 -8 -136 4 -127 2 -157 32 -14 13 -18 20 -10 16 12 -7 13 -6 4
6 -6 8 -10 22 -9 32 2 9 0 17 -3 17 -9 0 -7 83 2 98 3 6 2 13 -4 17 -7 4 -7
12 0 26 6 10 7 19 3 19 -4 0 -8 27 -8 59 0 33 4 57 9 53 6 -3 6 3 2 14 -12 29
-13 74 -2 67 6 -4 6 1 2 13 -10 26 -13 93 -3 87 10 -6 9 5 -4 29 -10 18 -8 19
13 13 l23 -7 -23 17 c-18 13 -20 20 -12 36 6 10 7 19 3 19 -10 0 -10 101 0
117 4 6 1 14 -5 16 -10 4 -10 6 0 6 7 1 10 5 7 11 -12 20 -14 51 -3 44 8 -5 9
-1 4 12 -12 29 -13 74 -2 67 6 -4 6 1 2 13 -11 28 -13 85 -3 91 5 3 3 9 -4 14
-10 6 -10 9 -2 9 8 0 10 7 6 17 -9 22 -8 66 0 80 4 7 3 14 -3 18 -7 4 -7 12 0
26 6 10 7 19 3 19 -10 0 -9 77 2 109 5 17 4 21 -5 16 -7 -4 -6 4 3 21 17 33
52 77 42 54 -4 -10 -1 -9 8 3 9 11 21 15 32 11 10 -4 21 -1 25 7 7 11 12 11
27 -2 29 -25 41 -30 48 -19 4 6 3 10 -2 9 -4 -1 -15 -1 -23 0 -13 1 -13 2 0
11 10 6 22 3 39 -13 l24 -22 -12 23 c-14 26 -9 28 13 6 9 -9 24 -17 34 -19 9
-1 16 -9 14 -16 -2 -8 0 -10 4 -6 15 15 12 35 -5 32 -21 -3 -33 4 -25 16 3 5
11 6 17 2 18 -11 36 -12 43 -2 3 5 11 9 17 9 7 0 6 -4 -3 -11 -12 -9 -11 -10
8 -6 12 3 20 2 18 -2 -3 -4 4 -7 14 -7 15 0 17 3 7 15 -10 12 -9 13 3 6 8 -6
23 -10 33 -11 9 -1 18 -2 20 -4 11 -9 38 -5 48 6 10 12 15 12 32 -3 11 -10 17
-13 14 -7 -8 13 30 27 38 14 5 -8 50 -4 65 5 3 2 12 0 20 -5 8 -5 21 -5 31 1
13 6 22 4 34 -7 8 -9 21 -17 28 -18 6 -1 17 -5 23 -8 6 -4 11 -1 11 6 0 8 -7
13 -16 11 -21 -3 -33 4 -25 16 3 5 11 6 17 2 18 -11 36 -12 43 -2 3 5 11 9 17
9 7 0 6 -4 -3 -11 -12 -9 -11 -10 8 -6 12 3 20 2 18 -2 -3 -4 4 -7 14 -7 15 0
17 3 7 15 -10 12 -9 13 3 6 8 -5 26 -10 40 -11 44 -3 46 -4 20 -19 -14 -8 -19
-14 -12 -15 6 0 12 -5 12 -11 0 -5 -5 -7 -12 -3 -7 4 -8 3 -4 -4 4 -6 13 -9
21 -5 18 6 19 -8 3 -26 -10 -11 -10 -13 0 -7 6 4 12 3 12 -1 0 -5 -6 -15 -12
-22 -10 -11 -10 -13 0 -7 6 4 12 2 12 -3 0 -6 -6 -11 -12 -11 -9 0 -10 -3 -2
-8 15 -10 16 -75 1 -84 -9 -6 -9 -8 1 -8 6 0 12 -7 12 -16 0 -9 -5 -12 -12 -8
-10 6 -10 5 -1 -7 10 -12 10 -18 0 -29 -9 -10 -9 -11 1 -6 7 4 12 1 12 -8 0
-9 -6 -16 -12 -16 -8 0 -9 -3 -3 -8 14 -10 19 -46 5 -37 -7 5 -7 0 1 -13 11
-18 10 -24 -6 -42 -13 -14 -15 -20 -5 -18 10 2 14 -9 16 -42 3 -46 -10 -75
-29 -63 -6 3 -7 1 -3 -6 6 -9 11 -9 22 0 17 14 19 -2 2 -20 -11 -11 -10 -13 0
-7 15 9 14 -51 -1 -71 -5 -7 -6 -13 -1 -13 5 0 -2 -7 -14 -16 -13 -9 -29 -13
-37 -10 -8 3 -14 0 -12 -6 1 -8 -23 -12 -75 -13 -79 -1 -123 8 -114 23 7 11
-59 84 -68 75 -3 -3 -6 -1 -6 5 0 7 -3 11 -7 11 -5 -1 -10 0 -13 1 -14 6 -102
5 -106 -2 -3 -4 -11 -5 -19 -1 -8 3 -15 0 -15 -7 0 -6 -4 -9 -9 -6 -5 3 -12
-1 -15 -10 -3 -8 -10 -12 -16 -9 -5 3 -10 1 -10 -6 0 -6 -8 -18 -17 -26 -12
-10 -13 -12 -3 -8 13 6 13 5 0 -7 -8 -7 -17 -29 -19 -48 -1 -19 -8 -41 -13
-47 -7 -9 -7 -13 1 -13 7 0 9 -4 6 -10 -3 -5 0 -10 7 -10 9 0 9 -3 -2 -10 -12
-8 -12 -10 5 -11 l20 0 -20 -9 -20 -9 20 0 c17 -1 17 -3 5 -11 -13 -8 -12 -10
3 -10 9 0 17 -4 17 -10 0 -5 7 -10 15 -10 8 0 19 -9 25 -21 7 -11 18 -18 25
-15 8 3 17 1 21 -5 3 -6 12 -8 20 -5 8 3 14 1 14 -4 0 -11 28 -9 48 3 13 9 17
-5 5 -17 -4 -3 -8 -14 -9 -22 -1 -9 1 -13 4 -9 4 4 7 10 7 14 0 3 10 18 23 31
19 21 24 22 32 10 7 -11 10 -11 10 -2 0 8 5 10 13 6 8 -5 8 -2 -2 9 -8 10 -9
17 -3 17 18 0 53 43 47 58 -2 7 -1 10 4 7 5 -3 12 -1 16 4 9 16 80 7 99 -12
21 -21 23 -21 23 -2 0 8 -4 12 -8 10 -4 -3 -9 1 -12 8 -3 8 1 14 9 14 8 0 14
-4 14 -9 0 -5 10 -6 23 -3 22 7 22 7 2 -10 -20 -16 -20 -16 2 -6 29 14 33 14
33 -3 0 -8 4 -17 9 -20 15 -10 7 28 -9 41 -13 11 -13 12 0 13 9 0 22 -6 29
-13 8 -6 11 -7 8 -2 -8 14 30 38 38 25 8 -13 25 -13 25 1 0 5 -4 7 -10 4 -5
-3 -10 -1 -10 4 0 6 7 11 15 11 8 0 15 7 15 15 0 8 7 15 15 15 8 0 14 5 13 12
-2 7 2 12 9 13 6 0 15 4 20 8 4 5 3 8 -2 7 -21 -5 -25 1 -15 21 8 13 11 113
11 295 0 211 3 273 12 267 8 -5 8 -2 -1 9 -15 18 -13 80 3 74 5 -2 9 -9 7 -15
-1 -7 2 -10 8 -6 8 5 7 11 -1 21 -14 17 2 19 20 2 11 -11 11 -9 0 9 -9 15 -17
19 -23 13 -13 -13 -29 -13 -24 1 2 6 7 10 12 9 5 -1 13 4 17 12 7 10 9 10 9 0
0 -9 5 -10 18 -3 10 5 24 6 32 1 8 -5 21 -5 31 1 11 6 20 5 24 -1 11 -18 43
-31 50 -20 4 6 3 10 -2 9 -4 -1 -15 -1 -23 0 -13 1 -13 3 0 10 8 6 19 7 25 3
16 -10 34 -11 41 -1 3 5 11 9 17 9 7 0 6 -4 -3 -11 -11 -7 -7 -9 18 -5 24 3
32 1 29 -8 -3 -7 1 -13 9 -13 10 0 12 7 8 21 -3 12 -2 17 3 11 10 -13 43 -18
43 -7 0 5 7 9 15 9 8 0 12 -4 9 -9 -3 -4 0 -8 6 -8 6 0 8 -4 5 -10 -3 -6 1 -7
9 -4 9 3 16 10 16 16 0 5 -6 6 -12 2 -7 -4 -9 -3 -5 1 4 5 13 10 20 11 31 5
44 10 76 31 19 12 39 19 45 16 6 -4 5 1 -3 11 -12 15 -12 17 0 14 8 -2 17 -7
20 -11 3 -5 9 -1 12 8 4 9 3 13 -3 10 -6 -3 -10 1 -10 10 0 9 3 14 8 12 4 -3
8 18 10 46 2 29 9 55 15 59 8 5 9 8 1 8 -15 0 -15 51 0 69 8 11 8 13 0 8 -16
-9 -17 85 -1 95 9 6 9 8 0 8 -9 0 -13 17 -13 51 0 37 3 48 13 43 9 -6 9 -5 0
7 -15 20 -16 129 0 130 7 0 3 4 -8 9 -11 5 -14 9 -7 9 9 1 11 9 7 24 -6 22 -6
22 11 2 17 -20 17 -16 -2 29 -7 18 41 48 80 50 17 1 37 5 43 9 6 4 15 3 18 -3
5 -8 12 -7 23 2 12 10 14 10 8 1 -4 -8 -2 -13 4 -13 6 0 8 -5 4 -12 -4 -7 -3
-8 5 -4 6 4 9 11 6 16 -8 12 21 20 33 8 6 -6 12 -6 16 1 5 8 13 8 26 1 13 -7
21 -7 25 0 10 16 25 1 19 -18 -5 -16 -5 -16 9 0 11 14 16 15 27 5 10 -9 11 -9
6 0 -5 9 -2 11 10 6 13 -5 15 -3 9 7 -6 10 -4 11 6 4 19 -12 58 -13 65 -2 3 5
12 4 19 -2 10 -8 15 -8 20 0 5 8 11 7 23 -2 12 -10 16 -10 19 0 3 6 9 10 14 6
5 -3 0 -13 -12 -23 -17 -14 -19 -20 -9 -26 9 -5 11 -4 6 4 -5 7 4 16 23 24 17
7 28 17 24 22 -5 5 0 3 9 -4 10 -7 16 -17 13 -21 -3 -5 1 -10 7 -13 10 -3 10
-7 1 -19 -7 -8 -10 -17 -7 -21 11 -11 11 -132 0 -139 -7 -6 -6 -11 4 -18 13
-9 13 -10 0 -10 -13 0 -13 -1 0 -10 9 -6 11 -13 5 -17 -12 -10 -18 -33 -7 -33
4 0 6 -24 6 -53 -2 -83 -3 -89 -16 -82 -7 4 -4 -1 7 -10 17 -14 18 -17 5 -25
-13 -9 -13 -10 0 -10 13 0 13 -1 0 -10 -12 -8 -13 -11 -1 -19 11 -7 11 -9 0
-14 -10 -4 -10 -6 -1 -6 6 -1 12 -6 12 -12 0 -5 -4 -7 -10 -4 -6 4 -7 -2 -2
-17 9 -29 8 -70 -2 -86 -4 -6 -3 -12 3 -12 5 0 8 -8 6 -17 -2 -10 -4 -24 -4
-31 -1 -7 -7 -10 -13 -7 -7 4 -4 -1 7 -10 12 -9 16 -19 10 -23 -12 -9 -18 -32
-8 -32 5 0 7 -33 7 -73 -2 -107 -3 -109 -16 -102 -7 4 -4 -1 7 -10 12 -9 16
-19 10 -23 -12 -9 -18 -32 -8 -32 7 0 8 -36 4 -88 -1 -7 -7 -10 -13 -7 -7 4
-4 -1 7 -10 12 -9 16 -19 10 -23 -14 -10 -17 -32 -5 -32 7 0 7 -7 -1 -21 -6
-12 -7 -19 -2 -16 5 3 9 -3 9 -13 0 -10 -3 -17 -6 -15 -3 2 -6 -5 -6 -15 0
-10 4 -16 8 -14 7 5 12 -19 11 -53 -1 -7 2 -11 6 -8 11 6 43 -53 36 -68 -4 -6
0 -4 8 6 15 18 15 18 22 -2 3 -12 11 -19 16 -16 5 4 9 -1 9 -10 0 -10 -5 -13
-12 -9 -7 4 -9 3 -5 -1 12 -14 36 -14 31 -1 -3 7 2 13 10 13 8 0 12 -6 9 -16
-5 -13 -3 -14 8 -3 18 16 40 15 33 -2 -3 -8 0 -17 7 -22 8 -4 10 -3 5 4 -4 7
-2 20 3 29 6 10 11 12 11 5 0 -6 3 -11 8 -11 26 4 34 -1 22 -16 -7 -9 -8 -15
-2 -15 16 0 22 26 9 39 -9 9 -8 11 6 6 9 -4 17 -11 17 -15 0 -4 7 -10 15 -14
13 -5 14 -2 4 17 -9 17 -9 20 1 10 7 -6 19 -9 26 -6 8 3 14 0 14 -6 0 -6 -4
-11 -10 -11 -5 0 -10 -6 -10 -12 1 -7 10 -2 21 11 11 13 22 21 26 17 3 -3 -2
-16 -13 -28 -19 -22 -19 -22 0 -8 18 14 19 13 13 -3 -4 -11 -3 -16 4 -12 6 4
8 13 6 19 -7 18 8 41 17 27 4 -6 3 -11 -3 -11 -7 0 -7 -8 -1 -26 7 -16 7 -23
0 -19 -12 7 -12 -2 -1 -30 5 -12 4 -26 -3 -34 -9 -12 -8 -13 4 -6 12 7 13 6 4
-6 -9 -12 -11 -49 -4 -64 7 -13 5 -31 -3 -42 -6 -9 -5 -13 3 -13 10 0 10 -4
-1 -16 -7 -9 -9 -18 -3 -22 5 -4 9 -22 10 -40 0 -25 -3 -31 -15 -27 -11 4 -10
0 4 -15 13 -14 14 -20 5 -20 -11 0 -11 -3 -2 -12 9 -9 8 -16 -5 -30 -15 -17
-15 -18 -1 -13 13 5 15 2 11 -15 -4 -13 -11 -19 -20 -16 -8 3 -12 2 -9 -2 13
-22 -33 -38 -117 -41 -84 -3 -125 8 -112 29 3 4 -2 13 -10 20 -8 7 -12 16 -9
21 3 5 2 9 -3 8 -19 -3 -34 2 -29 10 6 10 -23 21 -67 26 -16 2 -35 6 -43 9 -8
3 -14 1 -14 -4 0 -5 -9 -7 -20 -5 -11 2 -20 -1 -20 -6 0 -6 -4 -7 -10 -4 -5 3
-10 1 -10 -4 0 -6 -6 -11 -14 -11 -14 0 -61 -56 -61 -74 0 -6 -6 -17 -13 -25
-8 -8 -10 -17 -5 -20 4 -3 9 -26 10 -51 3 -61 5 -70 15 -70 4 0 8 -5 8 -11 0
-5 -5 -7 -12 -3 -7 4 -8 3 -4 -4 4 -6 13 -9 20 -6 8 3 21 -5 30 -18 9 -12 16
-19 16 -14 0 5 8 2 18 -6 9 -8 32 -14 50 -13 19 1 39 -3 45 -9 15 -14 57 -17
57 -4 0 6 -7 8 -15 5 -8 -4 -17 -1 -21 4 -4 7 6 10 27 7 19 -1 34 2 34 7 0 22
34 57 49 52 8 -3 18 -1 22 5 4 7 3 8 -4 4 -7 -4 -12 -1 -12 8 0 19 11 20 29 4
11 -10 13 -10 7 0 -4 6 -2 12 3 12 6 0 11 5 11 11 0 8 -4 8 -14 0 -10 -8 -16
-9 -21 -1 -7 12 -8 12 75 14 36 1 71 -3 79 -8 12 -9 13 -8 6 3 -6 11 -3 13 19
7 14 -3 26 -2 26 3 0 5 8 11 18 14 9 2 26 8 37 12 17 6 17 5 5 -5 -12 -9 -12
-11 -1 -8 8 2 15 12 17 22 1 10 9 23 16 29 25 22 54 61 38 52 -13 -8 -13 -6
-1 8 8 10 12 34 9 62 -2 25 1 45 5 45 5 0 5 5 1 12 -13 21 -9 83 6 96 8 8 10
11 4 8 -7 -3 -14 1 -18 9 -3 8 -2 15 3 15 4 0 5 23 1 50 -4 28 -2 50 2 50 5 0
6 6 2 12 -8 13 -7 70 3 102 3 12 1 16 -6 12 -6 -4 -11 -2 -11 3 0 15 43 14 60
-1 8 -7 6 -3 -3 9 l-18 21 55 0 c37 -1 53 -5 49 -12 -5 -8 -3 -8 8 0 18 13 79
17 79 5 0 -6 -9 -8 -20 -6 -11 2 -18 0 -15 -5 3 -4 13 -7 23 -5 9 2 21 4 26 4
4 1 6 8 3 15 -4 10 -1 13 8 9 8 -3 13 -9 10 -13 -3 -4 3 -14 13 -21 15 -13 16
-12 3 4 -9 12 -10 17 -2 17 7 0 10 4 7 8 -2 4 4 8 14 8 10 0 16 -4 14 -8 -3
-4 10 -5 27 -3 22 3 37 -1 46 -13 12 -16 14 -16 27 1 7 9 19 17 27 17 10 0 10
-3 1 -12 -7 -7 -12 -16 -12 -21 0 -5 9 1 20 14 10 13 19 19 20 13 0 -7 7 -14
15 -18 22 -8 47 4 41 20 -8 20 0 17 23 -7 14 -15 21 -17 26 -8 5 8 4 10 -3 5
-7 -4 -12 -3 -12 2 0 5 18 10 40 10 22 0 40 -3 40 -9 0 -5 5 -9 11 -9 5 0 7 5
3 11 -3 6 5 4 19 -6 19 -12 27 -13 33 -4 5 8 3 9 -6 4 -9 -6 -11 -4 -5 4 6 10
11 10 22 -2 8 -8 16 -20 17 -28 2 -8 8 -25 15 -39 11 -23 11 -23 7 -2 -2 12 0
22 5 22 9 0 13 -21 10 -47 -1 -6 3 -14 9 -18 6 -3 7 0 4 9 -4 11 0 16 11 16
10 0 13 -5 9 -12 -5 -7 -2 -9 9 -5 9 3 18 -1 21 -9 9 -23 8 -24 -11 -18 -15 5
-15 4 -3 -4 17 -13 33 -5 26 13 -3 9 2 13 15 12 10 -1 19 -5 19 -9 0 -4 5 -8
11 -8 5 0 7 5 4 10 -3 6 -1 10 4 10 6 0 11 -4 11 -10 0 -5 5 -10 11 -10 6 0 8
7 5 16 -3 9 -2 12 5 9 6 -4 19 1 29 10 12 11 20 13 25 6 3 -6 12 -11 18 -11 8
0 7 4 -2 9 -12 8 -7 14 22 31 40 24 51 38 15 19 -22 -11 -22 -11 -8 7 8 10 21
30 28 43 11 19 11 22 0 15 -10 -6 -10 -4 1 9 10 13 10 17 1 17 -9 0 -10 3 -1
13 8 10 7 17 -2 27 -9 10 -9 11 1 6 7 -4 4 7 -7 27 -11 19 -17 38 -13 43 4 4
2 4 -4 1 -6 -3 -17 5 -24 18 -7 14 -21 25 -31 25 -9 0 -19 5 -21 11 -9 27
-143 13 -176 -18 -7 -7 -18 -13 -23 -13 -6 0 -7 -4 -4 -10 3 -5 3 -10 -2 -10
-4 0 -16 -14 -25 -30 -16 -29 -37 -34 -64 -17 -6 3 -14 3 -18 -1 -12 -11 -150
-9 -158 3 -5 7 -8 6 -8 -1 0 -12 -29 -12 -49 1 -9 5 -12 4 -7 -3 4 -7 -5 -9
-26 -7 -18 2 -35 4 -38 5 -3 1 -9 1 -15 0 -31 -8 -95 -5 -95 4 0 7 -3 8 -8 1
-4 -6 -20 -11 -37 -11 -16 0 -33 5 -37 11 -5 7 -8 7 -8 0 0 -13 -109 -13 -129
-1 -9 6 -12 5 -7 -2 7 -11 -48 -11 -60 1 -4 3 -14 3 -23 -2 -20 -9 -52 -8 -70
3 -9 6 -12 5 -7 -2 4 -7 -5 -9 -26 -7 -18 2 -35 4 -38 5 -3 1 -9 1 -15 0 -25
-7 -95 -6 -95 0 0 5 -11 11 -25 14 -14 4 -23 11 -20 15 3 5 -2 17 -11 25 -8 9
-10 16 -4 16 7 0 8 6 0 19 -7 14 -7 20 2 23 7 3 8 9 3 19 -12 19 -12 52 0 62
6 6 6 10 -2 14 -9 3 -10 10 -3 24 6 10 7 19 2 19 -5 0 -8 12 -6 28 4 38 6 86
4 92 -6 16 -4 60 2 60 4 0 5 7 1 16 -11 30 -8 59 7 72 13 10 12 11 -4 5 -12
-4 -17 -3 -13 4 3 5 7 44 8 85 l2 75 38 0 c21 0 38 -3 37 -6 -2 -19 3 -31 13
-31 8 0 9 4 0 13 -11 14 -5 27 11 27 5 0 7 -4 4 -9 -10 -15 23 -21 37 -6 14
13 57 17 57 5 0 -3 -6 -12 -12 -20 -11 -12 -10 -12 2 -3 17 13 37 12 60 -2 13
-8 13 -7 1 8 -7 9 -17 15 -21 12 -4 -3 -11 2 -14 10 -4 13 -2 13 14 5 22 -12
33 -13 26 -2 -2 4 4 8 14 8 10 0 16 -6 13 -13 -3 -7 -10 -10 -16 -6 -6 3 -7 1
-3 -6 6 -9 11 -9 23 1 17 14 123 21 123 8 0 -4 9 -10 20 -13 10 -3 18 0 17 5
-1 6 4 13 12 16 9 3 11 0 6 -8 -6 -10 -4 -12 8 -7 19 7 40 -27 51 -82 5 -31 5
-32 -12 -20 -16 13 -16 13 0 -6 20 -25 14 -36 -32 -57 -24 -11 -45 -34 -67
-72 -17 -31 -28 -58 -23 -61 4 -3 6 -19 4 -35 -3 -18 -1 -30 6 -30 8 0 8 -6 0
-20 -9 -16 -8 -18 5 -14 10 4 13 2 10 -8 -4 -9 5 -20 20 -28 16 -8 25 -20 22
-30 -4 -16 0 -17 59 -21 18 -1 22 -5 15 -12 -6 -6 -11 -15 -11 -20 0 -5 8 -1
17 8 16 16 18 16 31 -1 14 -18 14 -18 9 3 -3 16 -1 20 10 16 8 -3 12 -12 9
-20 -3 -8 -1 -11 4 -8 6 3 10 14 11 23 0 11 3 12 6 5 2 -7 12 -13 21 -12 11 0
12 2 5 6 -7 2 -13 9 -13 14 0 6 8 6 19 -1 14 -7 22 -7 27 2 4 7 3 8 -4 4 -7
-4 -12 -2 -12 3 0 6 7 11 16 11 8 0 12 5 9 10 -3 6 0 10 8 10 8 0 18 7 21 16
3 9 11 12 18 8 10 -6 10 -4 0 8 -9 11 -10 18 -2 23 6 3 8 11 5 16 -4 5 -3 9 2
9 4 0 8 16 8 35 0 19 -3 35 -7 35 -4 0 -5 7 -1 15 3 9 -3 25 -12 35 -10 11
-15 20 -11 20 10 0 -26 35 -57 55 -22 14 -25 20 -16 31 9 12 9 13 -3 9 -12 -5
-15 0 -13 19 2 14 6 30 10 35 3 6 2 11 -4 11 -10 0 -9 19 3 38 4 7 4 12 -1 11
-20 -4 -24 2 -12 18 8 9 9 14 3 10 -10 -6 -22 8 -24 31 -1 4 -10 12 -20 17
-10 6 -20 15 -22 20 -2 6 -6 9 -10 7 -5 -1 -8 2 -8 6 0 14 -64 30 -112 28 -30
-2 -48 1 -48 8 0 7 -3 7 -8 1 -9 -14 -105 -14 -114 -1 -5 7 -8 7 -8 1 0 -12
-79 -13 -97 -2 -7 5 -13 5 -13 0 0 -4 -13 -8 -30 -8 -16 -1 -30 3 -30 8 0 4
-5 5 -12 1 -16 -10 -56 -11 -71 -2 -9 6 -9 8 0 8 8 0 9 9 3 30 -10 36 -10 38
1 66 4 12 5 25 1 29 -10 10 -8 49 3 58 6 6 6 10 -2 14 -9 3 -10 10 -3 24 6 10
7 19 3 19 -12 0 -10 134 2 142 6 5 4 8 -5 9 -10 0 -8 3 5 9 18 8 18 9 2 9 -17
1 -17 2 -2 17 14 14 14 18 1 33 -10 11 -12 21 -5 34 6 9 14 15 19 12 5 -3 19
-1 31 6 16 8 20 8 14 -1 -8 -13 26 -10 36 3 3 5 9 1 12 -8 5 -10 3 -14 -5 -9
-7 4 -8 3 -4 -5 4 -6 12 -9 17 -5 5 3 7 9 4 14 -8 12 21 20 33 8 6 -6 12 -6
16 1 5 8 13 8 26 1 13 -7 21 -7 25 0 10 16 25 1 19 -18 -5 -16 -5 -16 9 0 11
14 16 15 27 5 10 -9 11 -9 6 0 -5 9 -2 11 10 6 13 -5 15 -3 9 7 -6 10 -4 11 6
4 19 -12 58 -13 65 -2 3 5 12 4 19 -2 9 -8 15 -8 20 0 4 7 12 7 25 0 13 -7 21
-7 25 0 5 8 11 8 20 0 15 -12 36 -10 47 5 5 6 8 5 8 -2 0 -8 13 -11 40 -8 22
2 39 1 38 -3 -1 -4 3 -17 10 -28 6 -12 8 -25 4 -29 -4 -5 -2 -5 4 -2 11 6 52
-29 54 -48 1 -5 4 -12 7 -15 4 -3 3 1 -2 9 -6 11 -2 12 21 7 49 -12 108 -13
123 -2 12 9 13 7 8 -7 -4 -11 -3 -16 3 -12 6 3 10 12 10 18 0 7 12 19 28 28
15 8 34 29 42 45 8 16 22 35 30 42 8 8 9 11 3 7 -18 -9 -16 16 4 45 16 23 16
24 0 12 -15 -13 -16 -10 -14 22 2 19 0 33 -5 30 -4 -3 -8 2 -8 10 0 9 -4 16
-10 16 -5 0 -10 5 -10 10 0 10 -53 70 -55 62 0 -2 -11 1 -25 6 -34 12 -99 8
-135 -8 -36 -17 -87 -68 -80 -80 3 -5 0 -12 -7 -16 -7 -5 -301 -9 -653 -11
-352 -1 -646 -3 -652 -4 -7 -1 -13 -6 -13 -11 0 -5 -4 -7 -9 -3 -6 3 -20 -5
-32 -17 -12 -13 -18 -16 -14 -8 5 8 -3 4 -16 -10 -14 -14 -24 -27 -23 -29 2
-2 -3 -9 -10 -16 -7 -7 -13 -34 -14 -60 -2 -53 -9 -68 -24 -59 -7 4 -8 2 -4
-5 4 -6 11 -9 15 -7 4 3 7 -13 8 -35 0 -21 -2 -37 -6 -35 -4 3 -8 -5 -8 -17
-2 -17 0 -19 7 -7 8 13 10 12 10 -2 0 -10 -6 -18 -12 -18 -9 0 -8 -4 2 -10 13
-9 13 -11 0 -20 -9 -6 -11 -13 -5 -17 12 -9 15 -74 3 -67 -4 3 -8 1 -8 -5 0
-5 6 -12 13 -14 9 -4 8 -8 -3 -16 -13 -10 -13 -12 0 -21 12 -8 13 -13 3 -30
-15 -23 -17 -42 -3 -20 8 12 10 10 10 -10 0 -15 -5 -31 -11 -37 -8 -8 -8 -13
0 -17 6 -4 11 -14 11 -22 0 -8 -4 -12 -10 -9 -5 3 -10 1 -10 -4 0 -6 5 -11 11
-11 8 0 7 -6 -2 -17 -12 -14 -12 -16 1 -9 8 5 2 -5 -15 -21 -16 -16 -34 -31
-40 -32 -34 -6 -903 -5 -917 1 -9 4 -18 5 -21 0 -2 -4 -2 -1 -1 6 2 6 -1 12
-7 12 -6 0 -6 7 1 20 8 15 8 20 -1 20 -8 0 -8 5 2 16 10 13 10 17 -2 25 -9 6
-10 12 -4 17 13 9 17 32 6 32 -5 0 -8 8 -6 18 2 9 4 23 4 30 1 7 7 10 14 7 6
-4 3 1 -8 10 -12 9 -16 19 -10 23 13 9 17 32 6 32 -5 0 -8 8 -6 18 2 9 4 23 4
31 1 9 5 10 14 5 7 -5 4 -1 -7 9 -11 10 -16 21 -10 25 12 9 16 32 6 32 -5 0
-9 7 -9 15 0 8 5 15 10 15 5 0 3 8 -4 17 -10 11 -10 14 -1 9 6 -4 12 -3 12 3
0 5 -6 12 -12 14 -9 4 -9 8 -3 14 13 10 17 33 7 33 -5 0 -7 19 -5 43 2 23 4
52 4 65 -1 12 4 22 10 22 5 0 8 -4 5 -9 -7 -11 21 -8 31 4 4 4 4 6 -2 3 -5 -3
-16 0 -22 8 -17 18 20 44 54 38 13 -3 22 -1 19 4 -3 5 1 9 9 9 18 0 19 -9 3
-26 -11 -10 -10 -11 5 -6 9 4 17 14 17 22 0 8 4 12 10 8 5 -3 7 -13 4 -23 -5
-14 -4 -14 4 -2 6 8 8 18 6 22 -3 4 5 7 18 5 13 -1 31 -14 40 -29 10 -16 21
-28 24 -28 4 0 1 6 -5 14 -6 7 -8 21 -5 30 6 15 8 15 21 -4 8 -12 12 -27 9
-35 -3 -9 0 -12 10 -8 9 3 21 -3 30 -16 9 -12 19 -19 24 -16 4 3 7 -7 5 -22
-3 -25 -2 -26 11 -8 12 17 14 17 14 2 0 -9 5 -17 11 -17 5 0 7 5 4 10 -3 6 1
10 10 10 9 0 13 -5 10 -11 -4 -6 2 -5 13 2 17 10 23 10 37 -4 9 -10 21 -15 26
-12 11 7 12 15 2 14 -28 -5 -22 4 11 16 22 8 43 12 48 9 5 -3 8 -2 7 3 -4 21
2 33 17 33 8 0 13 4 10 9 -3 5 4 21 16 37 13 15 17 24 9 20 -10 -7 -11 -4 -1
13 6 12 10 30 8 40 -2 10 4 26 12 37 14 17 14 18 -1 6 -14 -10 -18 -10 -22 2
-3 8 -1 17 6 20 7 2 4 5 -7 5 -10 1 -16 6 -14 14 3 6 -11 28 -30 47 -20 19
-32 28 -28 20 6 -12 4 -11 -6 1 -7 9 -21 15 -30 13 -10 -1 -18 1 -18 5 0 10
-79 11 -86 0z m49 -111 c2 -7 -3 -24 -11 -38 l-14 -25 19 24 c20 23 21 23 31
5 6 -10 12 -14 12 -8 0 7 7 15 16 18 9 4 13 2 8 -5 -4 -6 -1 -15 5 -19 9 -5 8
-11 -4 -24 -12 -12 -13 -16 -3 -17 7 0 3 -5 -9 -11 -13 -6 -23 -14 -23 -18 0
-12 -61 -3 -75 11 -19 20 -30 69 -15 69 6 0 9 4 6 9 -3 5 1 14 8 20 11 9 16 9
22 0 5 -8 3 -9 -6 -4 -9 6 -11 4 -5 -5 6 -9 4 -11 -5 -5 -9 5 -11 4 -6 -4 11
-17 37 6 29 25 -3 8 -1 14 5 14 6 0 12 -6 15 -12z m41 -20 c-3 -5 -12 -4 -20
3 -7 6 -11 15 -8 21 3 5 12 4 20 -3 7 -6 11 -15 8 -21z m2199 -40 c9 -9 13
-18 10 -22 -4 -3 -1 -6 5 -6 18 0 14 -35 -5 -59 -20 -24 -78 -34 -93 -16 -5 6
-7 15 -3 18 3 4 -2 7 -13 8 -11 0 -14 3 -6 6 10 4 10 8 1 20 -10 11 -10 16 0
22 7 5 12 12 10 17 -3 12 36 31 60 29 10 0 26 -8 34 -17z m-813 -162 c0 -3 -4
-8 -10 -11 -5 -3 -10 -1 -10 4 0 6 5 11 10 11 6 0 10 -2 10 -4z m425 -566 c3
-5 1 -10 -4 -10 -6 0 -11 5 -11 10 0 6 2 10 4 10 3 0 8 -4 11 -10z m-295 -4
c0 -3 -4 -8 -10 -11 -5 -3 -10 -1 -10 4 0 6 5 11 10 11 6 0 10 -2 10 -4z
m-2016 -124 c3 -5 -1 -9 -9 -9 -8 0 -15 4 -15 9 0 4 4 8 9 8 6 0 12 -4 15 -8z
m476 -42 c0 -5 -2 -10 -4 -10 -3 0 -8 5 -11 10 -3 6 -1 10 4 10 6 0 11 -4 11
-10z m1965 -99 c-3 -5 2 -17 11 -26 12 -12 19 -13 30 -4 13 10 18 6 15 -13 0
-5 4 -8 10 -8 16 0 2 -47 -21 -70 -22 -22 -29 -23 -49 -7 -12 10 -13 9 -6 -3
8 -13 7 -13 -8 -1 -9 7 -17 10 -17 5 0 -5 -7 4 -15 20 -18 33 -19 56 -4 56 5
0 7 -6 3 -12 -5 -9 -2 -9 9 1 18 14 23 26 8 16 -5 -3 -12 -1 -16 5 -3 5 -1 10
5 10 6 0 8 6 5 13 -4 6 3 2 14 -11 18 -21 20 -21 18 -3 0 11 -5 17 -9 15 -4
-3 -8 -1 -8 5 0 5 6 12 13 14 18 8 19 8 12 -2z m35 -17 c0 -8 -4 -12 -10 -9
-5 3 -10 10 -10 16 0 5 5 9 10 9 6 0 10 -7 10 -16z m-3509 -60 c10 -9 16 -21
12 -26 -3 -6 1 -14 8 -19 11 -7 11 -9 1 -9 -7 0 -11 -4 -7 -9 3 -6 -5 -19 -17
-31 -26 -23 -75 -24 -70 -1 3 12 0 12 -13 1 -13 -11 -14 -10 -9 5 5 13 4 16
-4 11 -8 -5 -12 0 -12 14 0 12 5 18 10 15 6 -3 10 -2 10 4 0 5 -6 11 -12 14
-9 3 -5 13 11 31 27 29 60 29 92 0z m4155 -374 c-10 -13 -9 -13 7 -1 9 7 17
10 17 5 0 -4 7 1 15 12 11 15 14 16 15 4 0 -9 -5 -21 -12 -28 -8 -8 -9 -12 -1
-12 6 0 13 5 15 12 2 6 10 8 17 4 9 -6 8 -12 -6 -23 -10 -8 -12 -12 -5 -8 16
8 15 -15 -2 -38 -19 -25 -61 -31 -80 -11 -9 8 -16 12 -16 7 0 -4 -5 0 -11 10
-8 13 -7 22 2 33 10 12 9 13 -7 7 -17 -6 -17 -5 -5 10 11 14 11 17 0 17 -8 0
-5 6 6 14 11 8 23 12 27 10 5 -3 8 0 8 6 0 7 5 6 14 -2 11 -10 11 -16 2 -28z
m34 30 c0 -5 -4 -10 -9 -10 -6 0 -13 5 -16 10 -3 6 1 10 9 10 9 0 16 -4 16
-10z m-400 -121 c0 -14 -17 -10 -23 5 -4 10 -1 13 9 9 7 -3 14 -9 14 -14z
m180 17 c0 -3 -4 -8 -10 -11 -5 -3 -10 -1 -10 4 0 6 5 11 10 11 6 0 10 -2 10
-4z m-280 -16 c0 -5 -4 -10 -10 -10 -5 0 -10 5 -10 10 0 6 5 10 10 10 6 0 10
-4 10 -10z m-2575 -29 c2 -5 -7 -7 -21 -5 -14 1 -23 0 -20 -3 12 -12 56 -11
56 0 0 7 4 6 10 -3 7 -11 5 -17 -8 -22 -15 -6 -15 -7 3 -8 11 -2 24 -2 28 -1
4 1 2 -9 -4 -21 -7 -13 -12 -24 -11 -25 1 -2 -6 -11 -16 -20 -20 -21 -63 -24
-70 -5 -2 6 -10 12 -17 12 -7 0 -17 14 -20 31 -6 26 -3 35 18 53 26 22 63 31
72 17z m1026 -150 c3 -1 16 -9 27 -20 23 -19 32 -78 10 -65 -7 5 -8 3 -4 -5 9
-13 -23 -43 -36 -35 -5 3 -8 0 -8 -6 0 -7 -6 -8 -19 -1 -10 6 -22 7 -26 3 -5
-4 -5 -1 -1 6 4 6 4 12 -1 12 -13 0 -35 54 -23 58 6 2 8 7 6 11 -3 4 0 13 6
21 8 12 9 12 4 -2 -3 -10 -1 -18 4 -18 6 0 10 8 10 18 0 24 7 31 28 27 9 -2
20 -4 23 -4z m659 -336 c9 0 14 -7 12 -17 -2 -11 3 -18 12 -18 11 0 15 -8 14
-25 -1 -14 -6 -25 -10 -25 -4 0 -8 -6 -8 -13 0 -17 -36 -38 -55 -31 -8 3 -15
10 -15 15 0 4 -7 6 -15 3 -13 -5 -17 1 -14 22 0 4 -5 10 -12 15 -11 6 -10 12
4 27 13 15 14 21 4 32 -8 9 -8 11 0 6 6 -3 14 -2 18 3 3 6 13 7 22 4 12 -5 14
-3 8 7 -6 10 -4 11 6 4 8 -5 21 -9 29 -9z m-706 -333 c3 -5 -1 -9 -9 -9 -8 0
-12 4 -9 9 3 4 7 8 9 8 2 0 6 -4 9 -8z m-1479 -12 c-3 -5 -1 -10 5 -10 6 0 8
-5 4 -12 -6 -9 -9 -9 -12 1 -3 8 -8 7 -18 -6 -9 -13 -13 -14 -14 -4 0 8 8 20
18 27 21 16 25 17 17 4z m1015 -21 c0 -14 -17 -10 -23 5 -4 10 -1 13 9 9 7 -3
14 -9 14 -14z m360 0 c0 -6 -4 -7 -10 -4 -5 3 -10 11 -10 16 0 6 5 7 10 4 6
-3 10 -11 10 -16z m-1940 -242 c0 -7 -4 -6 -10 3 -5 8 -10 11 -10 5 0 -5 5
-17 10 -25 7 -11 10 -11 10 -2 0 7 4 10 10 7 6 -4 7 1 4 12 -5 14 -4 15 4 4 6
-8 15 -10 23 -6 8 5 6 -1 -4 -13 -19 -20 -18 -21 5 -16 23 5 23 5 3 -12 -18
-15 -18 -16 -1 -10 14 5 17 3 11 -11 -4 -10 -8 -24 -8 -30 0 -10 -3 -10 -16 0
-9 7 -12 8 -8 1 4 -7 0 -17 -8 -24 -12 -10 -15 -10 -16 1 0 10 -2 10 -6 2 -3
-10 -9 -10 -26 0 -27 15 -37 28 -31 39 3 4 0 8 -5 8 -6 0 -11 7 -11 15 0 8 5
15 11 15 6 0 9 6 6 13 -2 6 7 20 21 29 27 17 42 16 42 -5z"/>
<path d="M2035 4180 c-3 -5 -1 -10 4 -10 6 0 11 5 11 10 0 6 -2 10 -4 10 -3 0
-8 -4 -11 -10z"/>
<path d="M4197 4172 c10 -7 17 -21 15 -30 -2 -14 -1 -15 7 -2 6 9 6 19 1 26
-6 6 -8 13 -5 15 2 3 -5 5 -16 5 -19 0 -19 -1 -2 -14z"/>
<path d="M4144 4168 c-5 -7 -2 -8 6 -3 9 6 10 2 5 -16 -4 -13 -6 -22 -3 -19
27 34 28 38 14 43 -9 4 -18 1 -22 -5z"/>
<path d="M427 3114 c-3 -3 -3 -13 0 -22 5 -11 3 -13 -8 -7 -8 5 -11 4 -6 0 4
-5 14 -10 22 -11 12 -2 12 2 5 17 -13 24 -2 25 16 2 13 -17 14 -17 8 2 -5 18
-3 17 15 -4 21 -23 29 -19 13 7 -9 14 -55 25 -65 16z"/>
<path d="M4615 2740 c-3 -4 5 -16 18 -26 13 -12 17 -13 10 -3 -9 10 -9 19 -2
26 6 6 5 10 -6 10 -9 0 -18 -3 -20 -7z"/>
<path d="M1547 2582 c-19 -21 -22 -32 -7 -32 6 0 9 6 8 13 -2 6 5 11 14 11 10
-1 14 4 11 12 -7 18 -7 18 -26 -4z"/>
<path d="M1590 2576 c0 -2 8 -10 18 -17 15 -13 16 -12 3 4 -13 16 -21 21 -21
13z"/>
<path d="M2601 2444 c0 -11 3 -14 6 -6 3 7 2 16 -1 19 -3 4 -6 -2 -5 -13z"/>
<path d="M2635 2440 c21 -24 26 -25 19 -6 -3 8 -13 17 -22 21 -13 5 -13 2 3
-15z"/>
<path d="M2615 2420 c-3 -5 -1 -10 4 -10 6 0 11 5 11 10 0 6 -2 10 -4 10 -3 0
-8 -4 -11 -10z"/>
<path d="M2671 2412 c-1 -8 -6 -10 -13 -6 -10 5 -10 4 -1 -6 15 -16 28 -8 20
12 -4 11 -6 11 -6 0z"/>
<path d="M3237 2114 c-8 -9 11 -44 24 -44 6 0 3 7 -5 16 -9 8 -14 20 -11 25 7
10 1 12 -8 3z"/>
<path d="M3265 2109 c-4 -6 -5 -12 -2 -15 2 -3 7 2 10 11 7 17 1 20 -8 4z"/>
<path d="M3289 2077 c6 -8 7 -18 3 -22 -4 -5 -2 -5 5 -1 14 8 6 36 -9 36 -7 0
-6 -5 1 -13z"/>
<path d="M505 1510 c-4 -6 -2 -17 4 -24 6 -7 9 -16 6 -19 -3 -4 -2 -5 2 -2 12
9 12 36 0 28 -6 -4 -8 0 -4 10 7 19 2 23 -8 7z"/>
<path d="M1621 4101 c-8 -5 -9 -11 -3 -15 5 -3 12 1 16 9 6 17 6 18 -13 6z"/>
<path d="M1750 4102 c0 -5 7 -9 15 -9 8 0 12 4 9 9 -3 4 -9 8 -15 8 -5 0 -9
-4 -9 -8z"/>
<path d="M2160 4095 c-11 -13 -11 -18 0 -28 10 -9 11 -9 6 1 -4 7 -2 19 4 27
7 8 10 15 7 15 -2 0 -10 -7 -17 -15z"/>
<path d="M2825 4069 c-4 -6 -4 -13 -1 -16 3 -4 6 -1 6 6 0 7 5 9 12 5 7 -4 8
-3 4 4 -9 15 -13 15 -21 1z"/>
<path d="M2947 4074 c-8 -8 3 -34 15 -34 7 0 6 5 -1 13 -6 8 -8 17 -4 20 3 4
4 7 1 7 -2 0 -7 -3 -11 -6z"/>
<path d="M3145 4069 c-4 -6 -4 -13 -1 -16 3 -4 6 -1 6 6 0 7 5 9 12 5 7 -4 8
-3 4 4 -9 15 -13 15 -21 1z"/>
<path d="M3185 4069 c-4 -6 -4 -13 -1 -16 3 -4 6 -1 6 6 0 7 5 9 12 5 7 -4 8
-3 4 4 -9 15 -13 15 -21 1z"/>
<path d="M3587 4074 c-8 -8 3 -34 15 -34 7 0 6 5 -1 13 -6 8 -8 17 -4 20 3 4
4 7 1 7 -2 0 -7 -3 -11 -6z"/>
<path d="M3786 4072 c-3 -5 1 -15 8 -21 11 -10 14 -9 12 3 -3 21 -13 29 -20
18z"/>
<path d="M3825 4069 c-4 -6 -5 -12 -2 -15 2 -3 7 2 10 11 7 17 1 20 -8 4z"/>
<path d="M3874 4069 c-3 -6 -1 -16 5 -22 9 -9 10 -7 5 7 -6 15 -4 17 6 11 9
-5 11 -4 6 3 -9 15 -13 15 -22 1z"/>
<path d="M2770 4059 c0 -5 -6 -9 -13 -7 -7 2 -14 -1 -15 -6 -4 -16 26 -15 32
1 5 11 10 12 19 4 10 -8 14 -7 14 2 0 7 -9 14 -19 14 -10 1 -18 -3 -18 -8z"/>
<path d="M2977 4059 c7 -7 15 -10 18 -7 3 3 -2 9 -12 12 -14 6 -15 5 -6 -5z"/>
<path d="M3075 4059 c-3 -4 2 -6 10 -5 21 3 28 13 10 13 -9 0 -18 -4 -20 -8z"/>
<path d="M3274 4055 c-4 -8 -9 -13 -13 -10 -4 2 -8 -2 -8 -10 0 -11 4 -12 13
-4 7 6 19 7 26 3 10 -6 11 -5 1 8 -7 8 -10 18 -6 21 3 4 3 7 -1 7 -3 0 -9 -7
-12 -15z"/>
<path d="M3426 4059 c2 -4 -1 -9 -8 -11 -8 -3 -6 -7 5 -11 11 -4 20 0 26 11 7
14 5 18 -9 18 -10 0 -17 -3 -14 -7z"/>
<path d="M3493 4051 c0 -11 5 -18 9 -15 4 3 5 11 1 19 -7 21 -12 19 -10 -4z"/>
<path d="M3617 4059 c7 -7 15 -10 18 -7 3 3 -2 9 -12 12 -14 6 -15 5 -6 -5z"/>
<path d="M3715 4059 c-3 -4 2 -6 10 -5 21 3 28 13 10 13 -9 0 -18 -4 -20 -8z"/>
<path d="M3915 4061 c-9 -15 15 -25 28 -12 9 9 7 10 -7 5 -13 -5 -17 -4 -12 4
4 7 5 12 2 12 -3 0 -7 -4 -11 -9z"/>
<path d="M3990 4059 c0 -5 5 -7 10 -4 6 3 14 -4 19 -17 6 -14 10 -17 10 -7 1
16 -17 39 -31 39 -4 0 -8 -5 -8 -11z"/>
<path d="M1853 4042 c1 -12 6 -18 15 -15 7 3 10 9 5 12 -4 3 -11 10 -15 15 -4
4 -6 -1 -5 -12z"/>
<path d="M2910 4051 c0 -6 4 -12 8 -15 5 -3 9 1 9 9 0 8 -4 15 -9 15 -4 0 -8
-4 -8 -9z"/>
<path d="M3119 4058 c-5 -18 -6 -38 -1 -34 7 8 12 36 6 36 -2 0 -4 -1 -5 -2z"/>
<path d="M3465 4049 c-4 -6 -5 -12 -2 -15 2 -3 7 2 10 11 7 17 1 20 -8 4z"/>
<path d="M3550 4051 c0 -6 4 -12 8 -15 5 -3 9 1 9 9 0 8 -4 15 -9 15 -4 0 -8
-4 -8 -9z"/>
<path d="M3759 4058 c-5 -18 -6 -38 -1 -34 7 8 12 36 6 36 -2 0 -4 -1 -5 -2z"/>
<path d="M3967 4047 c-3 -8 1 -14 8 -14 7 0 11 6 8 14 -3 7 -6 13 -8 13 -2 0
-5 -6 -8 -13z"/>
<path d="M2715 4020 c3 -5 8 -10 11 -10 2 0 4 5 4 10 0 6 -5 10 -11 10 -5 0
-7 -4 -4 -10z"/>
<path d="M1975 3981 c-3 -5 0 -13 6 -17 8 -5 9 -3 4 6 -6 10 -4 12 9 7 10 -4
15 -3 11 3 -8 13 -22 13 -30 1z"/>
<path d="M4150 3941 c0 -6 4 -13 10 -16 6 -3 7 1 4 9 -7 18 -14 21 -14 7z"/>
<path d="M3275 3720 c-3 -5 -1 -10 4 -10 6 0 11 5 11 10 0 6 -2 10 -4 10 -3 0
-8 -4 -11 -10z"/>
<path d="M1446 3638 c3 -5 10 -6 15 -3 13 9 11 12 -6 12 -8 0 -12 -4 -9 -9z"/>
<path d="M3426 3428 c3 -4 9 -8 15 -8 5 0 9 4 9 8 0 5 -7 9 -15 9 -8 0 -12 -4
-9 -9z"/>
<path d="M3575 3429 c-4 -6 -5 -12 -2 -15 2 -3 7 2 10 11 7 17 1 20 -8 4z"/>
<path d="M3775 3430 c-3 -5 -1 -10 4 -10 6 0 11 5 11 10 0 6 -2 10 -4 10 -3 0
-8 -4 -11 -10z"/>
<path d="M3894 3405 c2 -16 7 -28 12 -26 10 3 8 16 -6 41 -6 10 -8 6 -6 -15z"/>
<path d="M3810 3416 c0 -2 8 -10 18 -17 15 -13 16 -12 3 4 -13 16 -21 21 -21
13z"/>
<path d="M3870 3411 c0 -7 -5 -9 -12 -5 -7 5 -8 3 -3 -5 5 -9 10 -10 18 -2 6
6 8 14 4 18 -4 3 -7 1 -7 -6z"/>
<path d="M3434 3388 l-19 -23 23 19 c12 11 22 21 22 23 0 8 -8 2 -26 -19z"/>
<path d="M2600 3340 c-12 -7 -12 -11 -2 -20 6 -5 10 -7 7 -4 -3 4 0 13 6 21
13 15 10 16 -11 3z"/>
<path d="M1186 3304 c-11 -8 -16 -14 -10 -14 13 0 39 18 34 24 -3 2 -14 -2
-24 -10z"/>
<path d="M1555 3310 c-3 -5 -1 -10 4 -10 6 0 11 5 11 10 0 6 -2 10 -4 10 -3 0
-8 -4 -11 -10z"/>
<path d="M1615 3309 c-4 -5 -4 -13 -1 -16 3 -4 6 0 6 8 0 11 2 11 10 -1 6 -9
10 -10 10 -3 0 17 -17 25 -25 12z"/>
<path d="M1696 3313 c-3 -3 -6 -11 -6 -17 0 -6 5 -4 10 4 8 12 10 12 10 1 0
-8 3 -11 7 -8 3 4 12 2 20 -5 7 -6 15 -9 18 -6 2 2 -8 12 -24 21 -15 9 -31 14
-35 10z"/>
<path d="M1756 3311 c-3 -5 1 -11 9 -14 9 -4 12 -1 8 9 -6 16 -10 17 -17 5z"/>
<path d="M2176 3313 c-3 -3 -6 -11 -6 -17 0 -6 5 -4 10 4 7 11 10 11 10 2 0
-8 5 -10 12 -6 8 5 9 2 5 -10 -4 -10 -3 -15 3 -11 6 3 10 10 10 15 0 12 -36
31 -44 23z"/>
<path d="M2235 3310 c-3 -5 -1 -10 4 -10 6 0 11 5 11 10 0 6 -2 10 -4 10 -3 0
-8 -4 -11 -10z"/>
<path d="M2546 3304 c-6 -15 -4 -15 11 -3 10 7 20 15 22 16 2 2 -3 3 -11 3 -9
0 -19 -7 -22 -16z"/>
<path d="M1146 3293 c-6 -14 -5 -15 5 -6 7 7 10 15 7 18 -3 3 -9 -2 -12 -12z"/>
<path d="M1493 3292 c2 -12 6 -24 10 -28 3 -4 4 4 2 16 -6 30 -16 40 -12 12z"/>
<path d="M1950 3299 c0 -5 5 -7 10 -4 6 3 10 8 10 11 0 2 -4 4 -10 4 -5 0 -10
-5 -10 -11z"/>
<path d="M2466 3302 c-3 -5 1 -9 9 -9 8 0 12 4 9 9 -3 4 -7 8 -9 8 -2 0 -6 -4
-9 -8z"/>
<path d="M1651 3284 c0 -11 3 -14 6 -6 3 7 2 16 -1 19 -3 4 -6 -2 -5 -13z"/>
<path d="M1306 3282 c-3 -5 1 -9 9 -9 8 0 12 4 9 9 -3 4 -7 8 -9 8 -2 0 -6 -4
-9 -8z"/>
<path d="M1575 3280 c3 -5 8 -10 11 -10 2 0 4 5 4 10 0 6 -5 10 -11 10 -5 0
-7 -4 -4 -10z"/>
<path d="M1790 3280 c0 -5 5 -10 11 -10 5 0 7 5 4 10 -3 6 -8 10 -11 10 -2 0
-4 -4 -4 -10z"/>
<path d="M2270 3280 c0 -5 5 -10 11 -10 5 0 7 5 4 10 -3 6 -8 10 -11 10 -2 0
-4 -4 -4 -10z"/>
<path d="M2447 3279 c7 -7 15 -10 18 -7 3 3 -2 9 -12 12 -14 6 -15 5 -6 -5z"/>
<path d="M1117 3273 c-10 -9 -9 -23 1 -23 5 0 9 7 9 15 0 17 -1 18 -10 8z"/>
<path d="M3275 3240 c-3 -5 -1 -10 4 -10 6 0 11 5 11 10 0 6 -2 10 -4 10 -3 0
-8 -4 -11 -10z"/>
<path d="M3828 2978 c5 -5 16 -8 23 -6 8 3 3 7 -10 11 -17 4 -21 3 -13 -5z"/>
<path d="M956 2933 c-6 -14 -5 -15 5 -6 7 7 10 15 7 18 -3 3 -9 -2 -12 -12z"/>
<path d="M596 2927 c3 -10 9 -15 12 -12 3 3 0 11 -7 18 -10 9 -11 8 -5 -6z"/>
<path d="M3906 2923 c-6 -14 -5 -15 5 -6 7 7 10 15 7 18 -3 3 -9 -2 -12 -12z"/>
<path d="M955 2900 c3 -5 8 -10 11 -10 2 0 4 5 4 10 0 6 -5 10 -11 10 -5 0 -7
-4 -4 -10z"/>
<path d="M361 2884 c0 -11 3 -14 6 -6 3 7 2 16 -1 19 -3 4 -6 -2 -5 -13z"/>
<path d="M524 2879 c-3 -6 -2 -15 4 -21 6 -6 12 -6 17 3 6 8 4 10 -5 4 -10 -6
-12 -4 -7 8 7 19 2 23 -9 6z"/>
<path d="M3506 2628 c3 -5 10 -6 15 -3 13 9 11 12 -6 12 -8 0 -12 -4 -9 -9z"/>
<path d="M3867 2626 c-4 -10 -1 -13 8 -9 8 3 12 9 9 14 -7 12 -11 11 -17 -5z"/>
<path d="M4075 2630 c3 -5 8 -10 11 -10 2 0 4 5 4 10 0 6 -5 10 -11 10 -5 0
-7 -4 -4 -10z"/>
<path d="M4107 2626 c-4 -10 -1 -13 8 -9 8 3 12 9 9 14 -7 12 -11 11 -17 -5z"/>
<path d="M3455 2620 c-3 -5 -1 -10 4 -10 6 0 11 5 11 10 0 6 -2 10 -4 10 -3 0
-8 -4 -11 -10z"/>
<path d="M4370 2620 c0 -5 5 -10 11 -10 5 0 7 5 4 10 -3 6 -8 10 -11 10 -2 0
-4 -4 -4 -10z"/>
<path d="M4490 2621 c0 -6 4 -13 10 -16 6 -3 7 1 4 9 -7 18 -14 21 -14 7z"/>
<path d="M3814 2600 c0 -13 4 -16 10 -10 7 7 7 13 0 20 -6 6 -10 3 -10 -10z"/>
<path d="M4313 2605 c0 -8 4 -12 9 -9 5 3 6 10 3 15 -9 13 -12 11 -12 -6z"/>
<path d="M4410 2617 c0 -2 6 -10 14 -16 11 -9 16 -9 22 1 4 7 4 10 -1 6 -4 -4
-14 -3 -22 3 -7 6 -13 9 -13 6z"/>
<path d="M4486 2582 c-3 -5 1 -9 9 -9 8 0 12 4 9 9 -3 4 -7 8 -9 8 -2 0 -6 -4
-9 -8z"/>
<path d="M4800 2565 c0 -2 6 -8 13 -14 10 -8 14 -7 14 2 0 8 -6 14 -14 14 -7
0 -13 -1 -13 -2z"/>
<path d="M3653 2545 c0 -8 4 -12 9 -9 5 3 6 10 3 15 -9 13 -12 11 -12 -6z"/>
<path d="M4740 2531 c-7 -15 -7 -22 2 -27 7 -4 10 -4 6 1 -4 4 -3 16 3 26 5
11 7 19 5 19 -3 0 -10 -9 -16 -19z"/>
<path d="M570 2505 c-11 -13 -10 -14 4 -9 9 3 16 10 16 15 0 13 -6 11 -20 -6z"/>
<path d="M655 2509 c-4 -5 -4 -13 -1 -16 3 -4 6 0 6 8 0 11 2 11 10 -1 6 -9
10 -10 10 -3 0 17 -17 25 -25 12z"/>
<path d="M736 2513 c-3 -4 -6 -11 -6 -17 0 -6 5 -4 10 4 6 10 10 11 10 3 0 -7
5 -13 10 -13 6 0 10 4 10 9 0 11 -26 22 -34 14z"/>
<path d="M816 2513 c-3 -3 -6 -11 -6 -17 0 -6 5 -4 10 4 6 10 10 11 10 3 0 -7
6 -12 13 -10 6 1 11 -3 10 -10 -2 -8 4 -10 14 -6 11 4 13 8 5 11 -7 2 -9 9 -5
15 3 7 3 9 -2 5 -4 -4 -15 -3 -25 2 -10 5 -20 6 -24 3z"/>
<path d="M895 2509 c-4 -6 -5 -12 -2 -15 2 -3 7 2 10 11 7 17 1 20 -8 4z"/>
<path d="M610 2491 c0 -7 -5 -9 -12 -5 -7 5 -8 3 -3 -5 5 -9 10 -10 18 -2 6 6
8 14 4 18 -4 3 -7 1 -7 -6z"/>
<path d="M691 2484 c0 -11 3 -14 6 -6 3 7 2 16 -1 19 -3 4 -6 -2 -5 -13z"/>
<path d="M1760 2470 c-6 -12 -5 -17 5 -17 8 0 11 7 7 16 -4 13 -1 12 16 -3 12
-11 22 -14 22 -8 0 7 -5 12 -11 12 -5 0 -8 4 -5 8 3 5 -2 9 -10 9 -8 0 -19 -8
-24 -17z"/>
<path d="M950 2471 c0 -7 -5 -9 -12 -5 -7 5 -8 3 -3 -5 5 -9 10 -10 18 -2 6 6
8 14 4 18 -4 3 -7 1 -7 -6z"/>
<path d="M1736 2422 c-3 -5 1 -9 9 -9 8 0 12 4 9 9 -3 4 -7 8 -9 8 -2 0 -6 -4
-9 -8z"/>
<path d="M3650 2419 c0 -5 5 -7 10 -4 6 3 10 8 10 11 0 2 -4 4 -10 4 -5 0 -10
-5 -10 -11z"/>
<path d="M1465 2409 c-4 -6 -5 -12 -2 -15 2 -3 7 2 10 11 7 17 1 20 -8 4z"/>
<path d="M1510 2380 c-12 -7 -10 -9 7 -7 12 0 19 5 17 9 -6 10 -6 10 -24 -2z"/>
<path d="M1540 2359 c-12 -8 -10 -9 7 -4 15 4 25 0 32 -12 6 -10 11 -13 11 -7
0 11 -20 34 -29 34 -4 0 -13 -5 -21 -11z"/>
<path d="M1655 2360 c-3 -6 1 -7 9 -4 18 7 21 14 7 14 -6 0 -13 -4 -16 -10z"/>
<path d="M2430 2297 c0 -2 6 -10 14 -16 11 -9 16 -9 22 1 4 7 4 10 -1 6 -4 -4
-14 -3 -22 3 -7 6 -13 9 -13 6z"/>
<path d="M2775 2280 c-3 -5 -1 -10 4 -10 6 0 11 5 11 10 0 6 -2 10 -4 10 -3 0
-8 -4 -11 -10z"/>
<path d="M2716 2242 c-3 -5 1 -9 9 -9 8 0 12 4 9 9 -3 4 -7 8 -9 8 -2 0 -6 -4
-9 -8z"/>
<path d="M2519 2238 c-5 -18 -6 -38 -1 -34 7 8 12 36 6 36 -2 0 -4 -1 -5 -2z"/>
<path d="M2685 2201 c-3 -5 -2 -12 3 -15 5 -3 9 1 9 9 0 17 -3 19 -12 6z"/>
<path d="M2690 2160 c0 -5 5 -10 11 -10 5 0 7 5 4 10 -3 6 -8 10 -11 10 -2 0
-4 -4 -4 -10z"/>
<path d="M3770 2090 c-6 -11 -8 -20 -6 -20 3 0 10 9 16 20 6 11 8 20 6 20 -3
0 -10 -9 -16 -20z"/>
<path d="M3680 2026 c0 -2 8 -10 18 -17 15 -13 16 -12 3 4 -13 16 -21 21 -21
13z"/>
<path d="M3730 2021 c0 -6 4 -13 10 -16 6 -3 7 1 4 9 -7 18 -14 21 -14 7z"/>
<path d="M3660 2011 c0 -10 19 -25 25 -20 1 2 -3 10 -11 17 -8 7 -14 8 -14 3z"/>
<path d="M3490 2000 c0 -5 9 -8 20 -7 21 1 18 10 -5 13 -8 1 -15 -2 -15 -6z"/>
<path d="M3544 2000 c2 -16 20 -14 24 2 3 10 2 10 -6 -1 -7 -9 -11 -10 -15 -2
-4 7 -5 8 -3 1z"/>
<path d="M3610 1979 c0 -5 5 -7 10 -4 6 3 10 8 10 11 0 2 -4 4 -10 4 -5 0 -10
-5 -10 -11z"/>
<path d="M3150 1900 c0 -5 5 -10 11 -10 5 0 7 5 4 10 -3 6 -8 10 -11 10 -2 0
-4 -4 -4 -10z"/>
<path d="M3180 1900 c0 -5 5 -10 11 -10 5 0 7 5 4 10 -3 6 -8 10 -11 10 -2 0
-4 -4 -4 -10z"/>
<path d="M3215 1880 c-2 -3 7 -7 21 -8 13 -1 24 2 24 6 0 9 -40 11 -45 2z"/>
<path d="M3274 1876 c1 -8 5 -18 8 -22 4 -3 5 1 4 10 -1 8 -5 18 -8 22 -4 3
-5 -1 -4 -10z"/>
<path d="M1803 1749 c-2 -23 3 -25 10 -4 4 8 3 16 -1 19 -4 3 -9 -4 -9 -15z"/>
<path d="M1296 1748 c3 -5 10 -6 15 -3 13 9 11 12 -6 12 -8 0 -12 -4 -9 -9z"/>
<path d="M1456 1748 c3 -5 10 -6 15 -3 13 9 11 12 -6 12 -8 0 -12 -4 -9 -9z"/>
<path d="M1722 1746 c7 -8 15 -12 17 -11 5 6 -10 25 -20 25 -5 0 -4 -6 3 -14z"/>
<path d="M1753 1740 c-1 -11 2 -20 7 -20 4 0 7 7 6 15 -3 23 -12 26 -13 5z"/>
<path d="M1867 1746 c-4 -10 -1 -13 8 -9 8 3 12 9 9 14 -7 12 -11 11 -17 -5z"/>
<path d="M2015 1750 c-3 -5 -1 -10 4 -10 6 0 11 5 11 10 0 6 -2 10 -4 10 -3 0
-8 -4 -11 -10z"/>
<path d="M2290 1740 c0 -5 5 -10 11 -10 5 0 7 5 4 10 -3 6 -8 10 -11 10 -2 0
-4 -4 -4 -10z"/>
<path d="M2573 1735 c0 -8 4 -12 9 -9 5 3 6 10 3 15 -9 13 -12 11 -12 -6z"/>
<path d="M2416 1718 c3 -5 10 -6 15 -3 13 9 11 12 -6 12 -8 0 -12 -4 -9 -9z"/>
<path d="M1560 1700 c-9 -6 -10 -10 -3 -10 6 0 15 5 18 10 8 12 4 12 -15 0z"/>
<path d="M936 1408 c3 -5 10 -6 15 -3 13 9 11 12 -6 12 -8 0 -12 -4 -9 -9z"/>
<path d="M785 1401 c-6 -11 13 -26 22 -17 4 3 1 6 -6 6 -7 0 -9 5 -6 10 3 6 4
10 1 10 -3 0 -7 -4 -11 -9z"/>
<path d="M816 1395 c4 -8 8 -15 10 -15 2 0 4 7 4 15 0 8 -4 15 -10 15 -5 0 -7
-7 -4 -15z"/>
<path d="M850 1395 c0 -8 2 -15 4 -15 2 0 6 7 10 15 3 8 1 15 -4 15 -6 0 -10
-7 -10 -15z"/>
<path d="M910 1400 c0 -5 5 -10 11 -10 5 0 7 5 4 10 -3 6 -8 10 -11 10 -2 0
-4 -4 -4 -10z"/>
<path d="M396 1343 c6 -4 14 -15 17 -23 5 -11 6 -9 4 4 -1 11 -9 21 -17 23
-10 3 -11 2 -4 -4z"/>
<path d="M686 1338 c3 -5 10 -6 15 -3 13 9 11 12 -6 12 -8 0 -12 -4 -9 -9z"/>
<path d="M574 1282 c4 -3 14 -7 22 -8 9 -1 13 0 10 4 -4 3 -14 7 -22 8 -9 1
-13 0 -10 -4z"/>
<path d="M540 1269 c0 -5 -4 -8 -9 -4 -5 3 -12 1 -15 -4 -4 -5 2 -8 11 -7 15
3 33 26 19 26 -3 0 -6 -5 -6 -11z"/>
</g>
</svg>
